<svg id="Layer_1" data-name="Layer 1" xmlns="http://www.w3.org/2000/svg" viewBox="0 0 513.04 84.69"><defs><style>.cls-1{fill:#fff;}.cls-2{fill:#de1600;}</style></defs><title>Logo</title><path class="cls-1" d="M9.48,19.1a67.4,67.4,0,0,1,13.44-1.23c4.77,0,9.7.68,13.21,2.67a10,10,0,0,1,5.6,9.07c0,6.86-5,11.12-11.42,13v.28c3,1.16,4.25,4.25,4.77,8.44.6,5.15,1.05,11.19,1.94,13.11H26c-.45-1.23-1-5.21-1.5-10.91S22,46.22,17.69,46.22H14.41L10.67,64.48H0ZM16,38.81h4.48c5.83,0,10.08-3.23,10.08-7.76,0-3.71-3.43-5.36-7.69-5.36a18.75,18.75,0,0,0-4.18.35Z"/><path class="cls-1" d="M58.15,52.47l-6,12H40.75L65.24,18.21H79.05l5.89,46.27H73.67l-1-12Zm14-7.55-1-10c-.23-2.54-.52-6.25-.75-9.06h-.15c-1.27,2.81-2.68,6.38-4,9.06l-5,10Z"/><path class="cls-1" d="M124,63.18c-2.69,1.1-7.24,2.06-13.29,2.06-13.29,0-22.25-7.48-22.25-19.71A26.39,26.39,0,0,1,101.15,22.4c5.23-3.37,11.43-4.95,18.52-4.95,5.45,0,9.55,1.17,11,2l-2.91,8A23.87,23.87,0,0,0,118.62,26a19,19,0,0,0-11.49,3.57c-4.26,3.16-6.95,8.44-6.95,14.9,0,7.34,4.48,12.29,13.37,12.29a28.47,28.47,0,0,0,9.55-1.51Z"/><path class="cls-1" d="M148.82,18.21l-9.55,46.27H128.52l9.55-46.27Z"/><path class="cls-1" d="M145.19,64.48l9.56-46.27h12.61L174,35.85a160.6,160.6,0,0,1,4.56,15.8h.22A104.18,104.18,0,0,1,181.1,35l3.43-16.82h10l-9.48,46.27H173.93l-7-18.46A135.44,135.44,0,0,1,162,29.88l-.23.07c-.59,4.53-1.79,11.05-3.28,18.33l-3.29,16.2Z"/><path class="cls-1" d="M234.48,62.36A58.68,58.68,0,0,1,218.21,65c-7,0-12.62-1.64-16.8-5.08a18,18,0,0,1-6.34-14.28,26.4,26.4,0,0,1,10.3-21.14c5.67-4.33,13.43-6.73,22.17-6.73,6.57,0,11.42,1.17,13.36,2.06l-3.21,8.37A29.29,29.29,0,0,0,227,26.24,22,22,0,0,0,214.18,30a18.44,18.44,0,0,0-7.25,15c0,7.76,5,11.67,12.92,11.67a14.78,14.78,0,0,0,5.45-.83l2-9.74h-7.76l1.64-7.9h18.29Z"/><path class="cls-1" d="M265.2,19.1a64.13,64.13,0,0,1,13.14-1.23c4.47,0,9.7.68,13.36,3.09a11.06,11.06,0,0,1,5.45,9.81,15.69,15.69,0,0,1-6.87,13.05c-4.11,3-9.93,4.25-16,4.25a35.42,35.42,0,0,1-4.4-.27l-3.44,16.68H255.87Zm6.27,20.67a21.89,21.89,0,0,0,4.1.34c6.5,0,10.75-3.84,10.75-8.44s-3.51-5.91-7.69-5.91a21.24,21.24,0,0,0-4.33.34Z"/><path class="cls-2" d="M345.68,36.75c0,8.44-3.21,16.61-9,21.83a27.38,27.38,0,0,1-18.59,6.66c-13.06,0-20.37-8.51-20.37-19.29,0-8.38,3.35-16.69,9.25-21.91a27.68,27.68,0,0,1,18.36-6.59C338.66,17.45,345.68,25.69,345.68,36.75Zm-30.23-7.56c-4,3.71-6.27,10.85-6.27,16.41,0,6.53,3.21,11.4,10.52,11.4a12.82,12.82,0,0,0,8.44-3.36c3.95-3.64,6.12-11.26,6.12-16.62,0-5.77-2.24-11.33-10.16-11.33A12.76,12.76,0,0,0,315.45,29.19Z"/><path class="cls-1" d="M346.38,53.77a25.18,25.18,0,0,0,11.87,3c4.18,0,8-1.79,8-5.43,0-2.61-2.16-4.32-6.79-6.52C354.06,42.1,349,38.53,349,32.49c0-9.34,8.88-15,19.86-15,6.12,0,9.7,1.24,11.86,2.34L377.35,28A21.29,21.29,0,0,0,368,26c-5,0-7.61,2.33-7.61,4.87s3.06,4.33,7.31,6.52c6.12,3,10,6.73,10,12.23,0,10.29-9.25,15.65-20.45,15.65-7-.14-12-1.72-14.41-3.37Z"/><path class="cls-1" d="M396,26.86H382.71l1.87-8.65H422l-1.79,8.65H406.75l-7.69,37.62H388.31Z"/><path class="cls-2" d="M509.64,35,448.35.85a6.64,6.64,0,0,0-9.88,5.8V78a6.64,6.64,0,0,0,10.09,5.68l61.29-37.21A6.64,6.64,0,0,0,509.64,35Zm-42.9.81h-6.5V55.76h-6.91V35.85h-6.5V28.93h19.91Zm15.63,19.91h-9.5l-4.75-26.83h6.17L477.62,44,481,28.93h6.17Z"/></svg>