<?xml version="1.0" encoding="UTF-8"?>
<svg xmlns="http://www.w3.org/2000/svg" xmlns:xlink="http://www.w3.org/1999/xlink" width="97.59pt" height="70.52pt" viewBox="0 0 97.59 70.52" version="1.1">
<g id="surface0">
<path style=" stroke:none;fill-rule:nonzero;fill:rgb(9.019608%,43.529412%,75.490959%);fill-opacity:1;" d="M 13.417969 10.9375 C 13.417969 10.9375 18.5 14.1875 20 29.519531 C 20 29.519531 20 44.519531 20 69.6875 L 60.292969 69.6875 L 60.292969 29.351562 C 60.292969 29.351562 62.082031 14.351562 67.042969 10.9375 L 50.042969 4.1875 L 50.042969 0.1875 C 50.042969 0.1875 40.152344 -0.648438 40.152344 6.1875 C 40.152344 6.1875 41.167969 0.1875 30.417969 0.1875 L 30.417969 4.1875 L 13.417969 10.9375 "/>
<path style="fill:none;stroke-width:10;stroke-linecap:butt;stroke-linejoin:miter;stroke:rgb(0%,0%,0%);stroke-opacity:1;stroke-miterlimit:4;" d="M 134.179688 595.825 C 134.179688 595.825 185 563.325 200 410.004687 C 200 410.004687 200 260.004687 200 8.325 L 602.929688 8.325 L 602.929688 411.684375 C 602.929688 411.684375 620.820312 561.684375 670.429688 595.825 L 500.429688 663.325 L 500.429688 703.325 C 500.429688 703.325 401.523438 711.684375 401.523438 643.325 C 401.523438 643.325 411.679688 703.325 304.179688 703.325 L 304.179688 663.325 L 134.179688 595.825 Z M 134.179688 595.825 " transform="matrix(0.1,0,0,-0.1,0,70.52)"/>
<path style=" stroke:none;fill-rule:nonzero;fill:rgb(9.019608%,43.529412%,75.490959%);fill-opacity:1;" d="M 13.082031 69.226562 C 13.832031 67.726562 19.832031 35.476562 19.832031 35.476562 C 20.332031 23.976562 16.832031 12.226562 13.332031 11.226562 L 1.082031 67.226562 L 13.082031 69.226562 "/>
<path style="fill:none;stroke-width:10;stroke-linecap:butt;stroke-linejoin:miter;stroke:rgb(0%,0%,0%);stroke-opacity:1;stroke-miterlimit:4;" d="M 130.820312 12.934375 C 138.320312 27.934375 198.320312 350.434375 198.320312 350.434375 C 203.320312 465.434375 168.320312 582.934375 133.320312 592.934375 L 10.820312 32.934375 L 130.820312 12.934375 Z M 130.820312 12.934375 " transform="matrix(0.1,0,0,-0.1,0,70.52)"/>
<path style=" stroke:none;fill-rule:nonzero;fill:rgb(9.019608%,43.529412%,75.490959%);fill-opacity:1;" d="M 78.832031 67.226562 L 67.082031 10.976562 C 63.582031 11.976562 59.832031 23.976562 60.332031 35.476562 C 60.332031 35.476562 66.082031 67.726562 66.832031 69.226562 L 78.832031 67.226562 "/>
<path style="fill:none;stroke-width:10;stroke-linecap:butt;stroke-linejoin:miter;stroke:rgb(0%,0%,0%);stroke-opacity:1;stroke-miterlimit:4;" d="M 788.320312 32.934375 L 670.820312 595.434375 C 635.820312 585.434375 598.320312 465.434375 603.320312 350.434375 C 603.320312 350.434375 660.820312 27.934375 668.320312 12.934375 L 788.320312 32.934375 Z M 788.320312 32.934375 " transform="matrix(0.1,0,0,-0.1,0,70.52)"/>
<path style="fill-rule:nonzero;fill:rgb(9.019608%,43.529412%,75.490959%);fill-opacity:1;stroke-width:10;stroke-linecap:butt;stroke-linejoin:miter;stroke:rgb(0%,0%,0%);stroke-opacity:1;stroke-miterlimit:4;" d="M 785.507812 443.832812 C 825.234375 288.207812 1009.179688 335.785937 970.390625 487.778125 " transform="matrix(0.1,0,0,-0.1,0,70.52)"/>
<path style=" stroke:none;fill-rule:nonzero;fill:rgb(97.854582%,69.791714%,23.971923%);fill-opacity:1;" d="M 87.175781 21.382812 C 88.109375 21.144531 88.671875 20.195312 88.433594 19.261719 C 88.195312 18.328125 87.246094 17.761719 86.3125 18 C 85.378906 18.238281 84.8125 19.191406 85.050781 20.125 C 85.289062 21.058594 86.238281 21.621094 87.175781 21.382812 "/>
<path style="fill:none;stroke-width:10;stroke-linecap:butt;stroke-linejoin:miter;stroke:rgb(0%,0%,0%);stroke-opacity:1;stroke-miterlimit:4;" d="M 871.757812 491.371875 C 881.09375 493.754687 886.71875 503.246875 884.335938 512.582812 C 881.953125 521.91875 872.460938 527.582812 863.125 525.2 C 853.789062 522.817187 848.125 513.285937 850.507812 503.95 C 852.890625 494.614062 862.382812 488.989062 871.757812 491.371875 Z M 871.757812 491.371875 " transform="matrix(0.1,0,0,-0.1,0,70.52)"/>
<path style=" stroke:none;fill-rule:nonzero;fill:rgb(9.019608%,43.529412%,75.490959%);fill-opacity:1;" d="M 89.308594 29.757812 C 94.867188 28.335938 98.222656 22.683594 96.804688 17.125 C 95.386719 11.566406 89.734375 8.210938 84.175781 9.628906 C 78.617188 11.046875 75.261719 16.703125 76.679688 22.261719 C 78.097656 27.816406 83.753906 31.175781 89.308594 29.757812 "/>
<path style="fill:none;stroke-width:10;stroke-linecap:butt;stroke-linejoin:miter;stroke:rgb(0%,0%,0%);stroke-opacity:1;stroke-miterlimit:4;" d="M 893.085938 407.621875 C 948.671875 421.840625 982.226562 478.364062 968.046875 533.95 C 953.867188 589.535937 897.34375 623.090625 841.757812 608.910937 C 786.171875 594.73125 752.617188 538.16875 766.796875 482.582812 C 780.976562 427.035937 837.539062 393.442187 893.085938 407.621875 Z M 893.085938 407.621875 " transform="matrix(0.1,0,0,-0.1,0,70.52)"/>
<path style=" stroke:none;fill-rule:nonzero;fill:rgb(100%,100%,100%);fill-opacity:1;" d="M 18.25 9.851562 L 24.75 21.601562 L 30.25 23.101562 L 33 17.601562 L 26.5 6.601562 L 18.25 9.851562 "/>
<path style=" stroke:none;fill-rule:nonzero;fill:rgb(100%,100%,100%);fill-opacity:1;" d="M 63.25 9.851562 L 56.75 21.601562 L 51.25 23.101562 L 48.5 17.601562 L 55 6.601562 L 63.25 9.851562 "/>
<path style=" stroke:none;fill-rule:nonzero;fill:rgb(100%,100%,100%);fill-opacity:1;" d="M 77.707031 18.050781 L 80.582031 26.175781 C 77.082031 24.738281 76.894531 19.425781 77.707031 18.050781 "/>
<path style=" stroke:none;fill-rule:nonzero;fill:rgb(100%,100%,100%);fill-opacity:1;" d="M 79.207031 13.863281 L 84.082031 28.863281 L 88.332031 29.363281 L 81.957031 11.175781 L 79.207031 13.863281 "/>
<path style=" stroke:none;fill-rule:nonzero;fill:rgb(100%,100%,100%);fill-opacity:1;" d="M 85.519531 9.675781 L 92.269531 27.738281 L 95.332031 24.988281 L 89.582031 9.925781 L 85.519531 9.675781 "/>
<path style=" stroke:none;fill-rule:nonzero;fill:rgb(100%,100%,100%);fill-opacity:1;" d="M 96.273438 20.644531 L 93.382812 12.523438 C 97.011719 14.453125 97.210938 19.765625 96.273438 20.644531 "/>
</g>
</svg>
